<svg xmlns="http://www.w3.org/2000/svg" version="1.1" xmlns:xlink="http://www.w3.org/1999/xlink" xmlns:svgjs="http://svgjs.dev/svgjs" viewBox="0 0 1422 800"><defs><linearGradient x1="50%" y1="0%" x2="50%" y2="100%" id="ssscribble-grad"><stop stop-color="hsl(206, 75%, 49%)" stop-opacity="1" offset="0%"></stop><stop stop-color="hsl(331, 90%, 56%)" stop-opacity="1" offset="100%"></stop></linearGradient></defs><g fill="none" stroke-width="1.5" stroke="url(#ssscribble-grad)" stroke-linecap="round"><path d="M1366.82 540.09C1235.46 572.95 1081.38 588.41 972.34 585.1 949.22 579.18 1012.02 552.17 1123.81 508.31 1244.79 472.53 1321.69 441.72 1332.55 439.29 1279.14 484.51 1176.82 583.02 1055.79 727.8 933.06 875.47 833.95 987.55 765.51 1011.92 724.81 938.44 708.37 794.98 704.36 659.5 712.88 624.94 718.85 721.66 714.94 907.46 712.7 1066.05 696.21 1091.74 663.35 957.36 630.49 762.9 582.81 649.41 523.08 686.33 465.01 842.28 399.27 1001.97 333.8 1065 280.87 1000.43 243.19 843.78 233.24 677.39 251.03 563.83 302.97 540.86 382.62 591.27 460.58 689.54 523.95 782.75 543.14 840.55 498.06 861.71 391.69 837.61 246.63 785.38 110.74 712.13 29.24 635.91 39.68 569.37 136.04 500.68 283.46 448.31 414.82 415.45 461.79 382.58 408.19 370.78 286.69 377.5 147.58 382.06 57.13 398.5 47.75 414.81 118.32 410.1 244.05 380.1 381.95 308.3 501.25 199.87 573.55 59.48 595.86 -81.85 572.49 -175.35 523.67 -191.36 470.36 -112.03 413.71 20.13 375.71 147.32 359.56 187.82 354.26 100.73 366.84 -77.64 390.94 -246.28 419.11 -295.92 451.37 -189.13 484.23 5.32 517.09 139.74 549 120.75 582.8 -25.14 620.67 -198.27 667.87 -276.31 730.12 -217.69 803.22 -58.12 895.33 114.8 1002.63 222.51 1106.59 232.36 1202.59 159.25 1269.03 54.65 1289.78 -47.06 1256.45 -98.39 1171.37 -92.96 1067.68 -39.9 971.42 45.03 924.94 137.75 958.41 238.56 1067.56 325.35 1219.35 393.24 1353.53 458.52 1413.79 507.23 1366.82 540.09Q1366.82 540.09 1366.82 540.09" opacity="0.99"></path><path d="M1332.82 343C1212.48 373.51 1068.08 385.16 955.37 380.94 911.18 379.45 943.76 369.15 1030.83 361.08 1144.85 372.13 1239.93 406.33 1289.25 476.93 1286.66 578.44 1231.19 708.57 1141.74 842.78 1031.22 939.87 922.7 974.23 829.83 923.29 751.47 811.12 695.55 677 657.24 590.66 631.66 610.3 613.34 736.6 595.16 914.56 580.2 1045.64 558.88 1052.84 528.37 923.36 497.85 741.61 459.59 622.55 417.01 630.63 377.64 755.05 340.45 912.45 313.15 1013.67 298.58 1013.88 304.25 911.73 335.58 759.86 381.42 610.58 446.14 516.62 516.66 491.32 566.11 529.07 585.41 600.29 556.22 673.01 475.14 741.02 352.68 778.17 216.3 784.87 106.86 772.27 56.92 741.09 89.33 702.99 190.27 659.49 328.48 619.91 448.82 589.4 495.99 558.88 455.96 538.87 351.96 524.83 221.09 505.39 118.94 481.07 78.87 440.79 108.1 381.22 198.31 293.83 319.34 178.79 446.52 59.05 549.79 -55.98 615.97 -133.74 643.37 -148.44 637.31 -90.68 612.25 26.81 570.41 146.92 531.4 221.72 503.99 199.16 478.55 75.6 469.25 -99.16 475.23 -235.37 483.5 -255.26 503.56 -142.42 534.07 39.32 564.59 168.83 604.11 167.85 653.38 48.57 704.95 -117.61 769.76 -226.57 848.08 -223.86 928.37 -115.16 1017.63 46.31 1106.51 190.26 1178.59 272.98 1228.45 274.81 1241.05 217.72 1214.87 123.49 1147.78 37.16 1052.36 -17.3 963.11 -40.88 900.26 -24.83 893.4 16.99 955.84 77.94 1075.36 143.75 1218.01 202.78 1333.78 264.55 1379.99 312.48 1332.82 343Q1332.82 343 1332.82 343" opacity="0.66"></path><path d="M1298.82 190.74C1189.33 218.91 1055.58 240.25 942.4 258.64 881.56 281.86 886 311.46 944.74 356.26 1040.98 416.72 1138.79 501.18 1211.79 608.69 1250.74 719.21 1243.35 826.74 1197.43 904.67 1121.37 929.91 1030.32 891.98 938.93 794.2 847.55 677.72 769.52 579.03 706.78 549.25 651.88 614.57 608.93 756.93 574.08 918.85 542.15 1021.97 513.03 1013.08 484.86 889.36 456.7 720.71 430.82 599.07 409.62 581.85 391.35 672.14 383.06 814.42 389.16 936.22 403.08 990.77 434.73 952.21 482.69 844.02 530.68 700.48 581.28 569.81 620.43 481.52 629.43 443.68 603.43 453.6 535.14 491.16 432.82 549.96 309.75 603.62 192.87 640.69 113.48 671.42 93.01 681.5 142.98 674.63 245.28 663.63 373.33 642.52 482.82 614.35 529.62 586.18 501.94 552.29 415.66 510.18 296.92 463.92 190.56 402.61 127.7 323.06 119.52 237.19 169.84 137.14 260.79 34.93 375.18 -46.03 487.52 -96.39 580.41 -95.47 649.25 -44.1 687.84 53.16 702.33 167.38 695.63 246.24 679.42 259.55 663.38 184.37 642 41.93 629.78 -116.36 630.15 -217.54 630.52 -211.22 644.37 -95.32 672.53 73.32 700.7 197.07 741.85 211.7 794.61 119.48 847.35 -31.57 910.81 -157.92 981 -202.61 1045.85 -152.19 1108.45 -28.25 1158.57 117.55 1187.49 244.66 1189.33 315.99 1157.41 327.68 1101.44 286.66 1022.5 219.57 937.43 152.46 875.81 88.36 850.75 50.28 879.58 38.63 963.08 42.64 1085.47 64.28 1215.08 94.19 1312.23 128.91 1345.62 162.57 1298.82 190.74Q1298.82 190.74 1298.82 190.74" opacity="0.63"></path><path d="M1264.82 203.08C1166.02 228.9 1043.67 262.58 933.01 305.63 860.24 351.75 840.17 412.1 869.84 488.17 940.82 567.97 1027.72 659.1 1108.09 751.18 1173.11 824.72 1204.83 872.96 1202.45 878.46 1170.97 839.98 1115.68 757.81 1048.1 650.65 970.11 560.27 894.08 512.36 826.11 536.52 759.37 634.46 703.43 779.51 658.52 919.09 615.05 994.9 580.44 972.5 554.62 855.36 514.69 647.33 574.94 940.14 629.88 900.91 657.68 797.55 675.9 672.19 673.53 556.07 642.07 462.22 579.74 406.61 487.84 385.04 380.58 392.71 270.52 415.98 180.62 441.21 132.03 473.23 137.4 494.41 200.21 500.58 300.9 506.29 418.02 496.49 516.82 470.67 562.69 444.85 546.02 404.23 477.15 349.83 373.49 294.97 269.76 226.82 192.87 150.06 154.55 80.08 166.28 14.29 220.29 -33.17 306.19 -51.39 406.48 -32.85 504.43 27.15 594.96 109.42 665.78 204.17 715.8 280.65 748.43 303.28 765.91 259.57 775.15 149.27 776.63 -60.3 797.07 -105.91 830.21 107.31 856.03 224.48 891.8 252.14 935.13 186.31 976.78 56.7 1022.34 -73.65 1066.31 -152.68 1101.81 -157.92 1126.85 -86.87 1134.01 30.38 1123.79 164.43 1090.04 277.22 1033.35 349.54 969.23 377.89 899.56 366.71 840.55 332.97 813.42 280.68 824.85 232.07 882.08 197.01 977.9 165.69 1096.33 152.3 1209.95 154.88 1288.79 160.53 1310.69 177.26 1264.82 203.08Q1264.82 203.08 1264.82 203.08" opacity="0.50"></path><path d="M1231.14 370.21C1143 393.68 1032.68 431.11 927.15 481.02 847.08 530.73 807.12 591.54 809.4 658.71 851.29 719.08 917.05 775.01 989.81 814.98 1063.03 830.63 1118.11 815.54 1149.09 764.91 1159.09 693.05 1144.82 604.68 1112.77 522.35 1066.49 477.37 1012.91 482.99 958.94 550.03 901.11 665.12 848.79 800.89 805.07 913.99 761.11 964.22 726.71 931.01 703.24 821.25 673.17 597.17 715.01 868.24 732.58 908.41 728.45 863.39 709.02 777.75 668.26 674.68 606.51 565.75 523.61 472.54 425.94 402.72 328.74 353.14 241.93 325.58 182.83 312.07 163.35 310.42 189.95 311.12 260.96 307.31 357.44 305.92 463 294.75 551.14 271.28 595.28 247.81 587.91 213.14 535.43 170.27 448.66 129.81 353.35 86.41 271.24 47.39 212.45 20.21 191.93 9.12 209.06 22.53 258.37 56.17 331.08 115.68 414.15 193.85 503.21 266.15 585.34 323.97 655.02 344.55 715.68 312.05 762.24 226.78 797.32 102.16 825.1 -27.04 847.01 -126.49 866.93 -159.38 884.76 -113.72 904.6 -0.17 928.07 141.25 951.54 251.01 977.54 288.97 1003.97 247.8 1028.32 143.76 1049.1 21.36 1062.01 -76.53 1067.6 -126.36 1059.7 -110.92 1035.21 -41.51 1001.71 65.26 953.27 181.45 894.98 284.08 842.67 365.47 797.79 414.26 772.92 434.79 780.24 430.99 821.81 413.72 897.8 394.03 997.11 367.53 1105.78 349.42 1201.62 343.97 1263.15 338.34 1275.28 346.73 1231.14 370.21Q1231.14 370.21 1231.14 370.21" opacity="0.26"></path><path d="M1196.79 560.9C1118.73 582.02 1020.73 611.64 922.81 647.08 840.46 680.27 786.7 714.63 766.22 744.1 779.7 763.74 819.01 769.38 873.07 754.56 938.02 723.65 998.11 670.8 1045.61 600.79 1092.25 502.37 1081.66 465.87 1041.54 584.41 1006.82 701.17 971.2 818.18 938.47 902.92 904.5 930.2 876.03 888.99 854.91 787.37 833.78 659.94 821 547.19 815.14 481.04 808.02 476.79 805.22 529.43 803.32 617.24 795.7 720.56 783.18 806.72 761.04 857.63 726.84 869.71 677.87 839.75 612.87 779.5 537.67 696.68 452.54 607.59 365.59 524.2 289.54 444.93 231.28 380.81 202.32 331.79 207.31 290.93 249.05 260.48 323.25 236.25 413.01 214.75 506.73 194.4 584.79 173.27 627.14 152.15 628.07 131.25 591.17 112.91 522.42 97.31 440.04 89.33 360.49 93.57 291.2 105.99 247.53 135.31 233.09 182.03 245.26 232.86 282.77 291.62 337.36 346.76 405.5 379.32 477.57 384.23 546.64 350.15 615.35 277.24 675.42 172.14 725.61 53.33 772.19 -49.95 810.36 -114.62 841.47 -118.51 871.14 -60.52 896.28 47.94 917.41 175.37 938.53 276.98 954.64 322.48 964.82 303.36 973.55 226.76 973.81 121.77 963.85 20.5 950.26 -57.37 924.99 -88.77 888.84 -72.02 852.32 -13.68 810.58 72.5 770.13 168.04 743.21 265.74 730.75 348.91 740.56 412.38 776.99 459.76 839.6 488.92 924.37 505.88 1019.41 513.02 1113.81 517.09 1190.71 523.74 1235.78 528.13 1239.15 539.77 1196.82 560.89Q1196.79 560.9 1196.79 560.9" opacity="0.25"></path><path d="M1162.78 624.89C1094.72 643.67 1009.28 660.12 920.82 672.62 840.3 683.03 778.43 685.69 740.71 677.44 729.2 663.26 741.21 634.97 770.56 592.52 815.51 547.25 864.9 494.57 911.59 442.9 957.72 407.6 993.29 391.5 1016.65 404.82 1033.39 451.47 1038.46 529.74 1034.12 631.04 1025.12 736.06 1010.38 828.04 992.59 884.8 973.46 892.51 953.84 846.07 935.06 753.32 916.28 640.07 899.24 535.15 882.96 462.63 865.33 435.91 845.91 456.63 822.37 513.87 794.17 597.13 758.17 682.89 712.49 754.13 660.2 805.95 597.67 826.49 526.92 817.71 455.62 784.23 383.97 732.19 319.46 671.44 270.56 602.41 241.71 536.19 239.46 477.78 263.41 420.34 314.6 372.86 387.87 335.69 469.09 299.67 550.72 272.23 618.78 253.45 658.52 234.67 665.88 225.44 642.65 226.06 591.63 227.81 525.08 241.13 454.62 266.03 384.84 291.9 329.35 327.19 293.41 367.28 275.53 399.1 279.46 424.17 301.39 433.04 338.13 417.21 385.1 374.41 436.39 303.03 492.96 212.24 547.53 109.65 596.81 12.62 646.27 -58.37 688.78 -89.79 723.39 -70.31 757.59 -5.04 784.39 96.07 803.17 209.32 826.89 327.19 829.67 261.69 808.58 129.78 791.85 42.25 768.2 -19.18 740.56 -46.27 718.21 -40.04 698.2 -1.67 686.07 58.23 688.74 134.51 707.07 214.15 744.49 288.35 799.98 359.75 872.31 418.96 955.85 465.68 1040.07 506.48 1117.31 537.97 1175.59 562.97 1206.07 585.89 1202.53 606.1 1162.81 624.88Q1162.78 624.89 1162.78 624.89" opacity="0.92"></path><path d="M1128.81 511.92C997.45 544.78 843.4 538.92 732.62 494.94 692.2 450.71 718.38 386.09 775.42 345.92 853.87 378.97 910.73 498.76 933.66 680.12 948.1 827.2 935.82 853.73 902.96 719.31 870.1 524.85 819.76 408.99 748.38 427.75 668.5 554.46 560.36 690.26 438.83 764.09 338.73 773.44 277.69 717.8 294.02 642.76 380.72 551.95 521.45 481.75 652.81 448.89 699.78 416.03 651.98 423.62 549.21 457.48 425.98 475.57 344.02 479.93 321.04 427.51 343.78 310.6 404.02 139.95 471.6 -10.83 548.76 -53.68 609.96 48.85 642.82 243.31 675.68 377.73 677.09 364.52 656.88 241.53 646.25 84.25 637.29 -0.68 657.62 9.33 723.68 92.57 840.48 208.48 987.81 309.65 1114.66 410.59 1175.78 479.06 1128.81 511.92Q1128.81 511.92 1128.81 511.92" opacity="0.92"></path><path d="M1094.79 310.97C985.3 339.13 851.8 334.93 740.08 310.92 670.24 299.95 650.85 299.09 665.88 339.56 709.76 429.93 752.93 570.67 777.6 721.5 802.88 816.3 802.92 809.09 774.75 685.37 746.58 516.72 692.88 393.98 618.79 365.89 545.31 430.97 458.17 538.13 377.39 630.64 325.43 702.08 314.95 722.1 364.14 706.4 455.22 673.14 577.3 634.07 686.79 605.91 733.62 577.74 710.42 563.14 639.33 547.59 537.58 514.48 449.75 450.5 397.45 342.14 370.92 212.72 380.22 75.68 409.16 -10.04 448.79 -2.6 488.38 108.72 516.55 277.37 544.72 401.09 558.8 419.72 567.98 345.55 587.84 215.37 622.5 104.51 685.93 51.06 775.15 47.5 892.85 92.32 1015.24 152.11 1106.99 224.93 1141.62 282.79 1094.82 310.96Q1094.79 310.97 1094.79 310.97" opacity="0.07"></path><path d="M1060.79 179.99C972.47 203.46 862.41 220.47 760.06 240.59 677.55 272.86 626.9 328.48 604.8 416.62 606.73 522.4 618.84 644.09 626.97 745.99 640.13 792.1 638.04 761.13 614.57 651.37 591.1 509.94 548.47 391.43 494.63 332.15 445.82 339.01 397.08 393.71 364.38 461.98 355.73 540.17 381.48 593.89 446.78 616.74 531.92 631.49 632.47 624.34 720.79 600.87 765.19 577.4 761.33 539.83 720.25 484.4 648.59 420.87 574.74 330.52 517.19 221.57 455.51 82.74 455.7 115.44 487.71 311.37 511.18 421.13 538.81 461.61 574.3 432.7 616.57 348.01 677.08 251.22 757.58 176.2 845.9 118.83 944.64 99.84 1033.51 108.25 1091.81 128.8 1105.2 156.51 1060.82 179.98Q1060.79 179.99 1060.79 179.99" opacity="0.56"></path><path d="M1026.82 222.06C958.76 240.84 873.55 274.15 788.53 322.53 709.18 375.42 645.96 448.42 601.68 535.87 571.41 618.96 553.34 696.86 540.64 746.5 532.73 754.04 521.45 710.1 502.67 617.36 483.89 504.1 459.39 399.47 434.77 326.81 414.92 291.92 403.68 293.65 409.35 317.07 429.02 360.11 472.32 400.52 537.9 425.44 609.16 451.31 686.76 456.59 754.82 437.81 794.54 419.04 804.07 377.97 788.08 319.56 748.08 262.1 699.82 192.39 655.72 124.73 608.84 76.7 576.32 55.06 561.58 76.19 548.9 135.08 551.9 232.1 570.68 345.36 589.45 438.1 622.24 489.65 667.45 495.87 714.74 460 776.56 402.02 848.06 343.53 916.77 280.69 984.94 237 1038.71 216.66 1068.46 200.81 1066.54 203.29 1026.82 222.06Q1026.82 222.06 1026.82 222.06" opacity="0.56"></path><path d="M992.79 404.12C883.3 432.29 750.34 526.52 651.15 638.96 572.05 710.73 523.31 707.09 495.14 583.37 466.97 414.71 464.72 289.96 506.9 245.13 569.17 255.63 679.3 273.18 788.79 245.01 835.62 216.84 821.2 148.3 783.86 100.88 724.43 108.79 695.81 210.71 723.98 379.37 752.15 503.09 831.77 529.56 928.11 494.71 1002.37 419.19 1039.62 375.95 992.79 404.12Q992.79 404.12 992.79 404.12" opacity="0.23"></path><path d="M958.82 582.91C805.09 620.47 633.31 690.93 595.76 549.36 558.2 330.88 669.09 211.67 822.82 174.11 867.69 136.56 833.15 194.88 870.71 413.36 908.26 554.93 1003.69 545.36 958.82 582.91Q958.82 582.91 958.82 582.91" opacity="0.38"></path></g></svg>